<svg height="682.667" version="1" viewBox="0 0 512.000000 512.000000" width="682.667"
     xmlns="http://www.w3.org/2000/svg">
  <path
    d="M297 32.2c-3.9.7-9.1 4-17.1 11-1.5 1.3-4.6 3.9-7 6-35.3 29.5-37.4 31.8-36.2 40.1.7 5.4 2.2 7.5 10.1 14.4 3.7 3.1 7.4 6.4 8.3 7.3.9.8 2.7 2.4 4 3.5 4.9 4.1 23.5 20.1 25.4 21.9 1.1 1 3.5 3 5.4 4.5l3.4 2.6 22.1.2c12.2.2 22.9 0 23.9-.3 2-.6 4.7-5.4 4.7-8.4 0-2.5-2.7-5.2-14.8-15.3l-9.3-7.7 3.8-.1c19.1-.3 31.8.3 34.6 1.5 3.1 1.2 8.6 6.6 8.8 8.7.1.5.3 1.3.4 1.9.1.5.3 12.5.4 26.5l.1 25.5h48.1l-.2-28.3c-.1-24.1-.3-29.3-1.9-35.5-6.5-24.8-27.8-43.9-53.5-47.7-2.2-.3-11.9-.6-21.7-.6-18.9-.1-19.7-.4-13.5-4.6 3.2-2.3 6.2-4.8 14.5-12.3 5.1-4.7 5.6-8.7 1.7-12.5-1.9-2-3.4-2.5-7.7-2.5-2.9-.1-11.5-.2-19-.3-7.5-.1-15.5.1-17.8.5z"/>
  <path
    d="M41.5 33.4c-3.7 1.6-7 5.2-8.4 8.9-.8 2-1.1 50-1.1 156.3V352h112v-32H64v-64h80v-16H64v-64h192l-.1-21.8v-21.7l-4.8-4c-18.4-15.7-21.7-18.7-24.9-22.9l-2.2-2.9V160H64V96h156.7v-7.8c-.1-6.2.4-8.8 2.5-13.3 3.2-7.1 4.5-8.6 14.3-16.7 4.4-3.7 9.1-7.6 10.5-8.9 1.4-1.2 3.5-3 4.8-4.1 1.2-1.1 2.2-2.3 2.2-2.8 0-2.3-6.4-8.4-9.8-9.4-2.4-.6-37.6-1-102.2-1-79.9.1-99.1.3-101.5 1.4zM217 50.8c4.8 3.6 6.9 7.8 6.7 13.7-.4 9.4-6.3 15-15.7 15-6.3-.1-9.6-1.7-13.2-6.6-5.5-7.4-2.1-19.4 6.6-23.4 4-1.9 12.2-1.2 15.6 1.3z"/>
  <path
    d="M80 128v16h128v-32H80v16zM80 208v16h63.5l1.2-7.5c1.2-7.5 4.5-15.3 9-21.3l2.4-3.2H80v16zM182 193.7c-9 3.1-15.3 9.1-20 18.8-1.3 2.5-1.5 13.9-1.8 71.2l-.3 68.3 12.3.1c13.5.2 15.9.3 18.2 1.2 1.5.6 1.6-5.4 1.6-64.3v-65h256v192H259.3v8c0 6.9-.4 8.8-3.2 14.5-1.8 3.7-3.9 6.9-4.7 7.2-4.3 1.6.6 2.3 17.6 2.3h19v9.5c0 11.3-1.3 15.1-6.6 19.1-3.7 2.9-3.9 2.9-19.9 3.2-19.8.4-20.6.8-21.3 10.1l-.4 6.1h160.4l-.4-6c-.7-9.3-.8-9.4-20.8-10-15-.4-17.2-.7-19.6-2.6-6-4.4-6.8-6.6-7.2-18.5l-.4-10.9h50.4c44.2 0 51.1-.2 55.4-1.6 8.7-3 15.4-8.8 19.5-17.2l2.4-4.7v-209l-2.5-4.9c-3.3-6.5-9.3-12.6-15.5-15.6l-5-2.5-135-.2c-120.9-.2-135.5-.1-139.5 1.4zM80 288v16h64v-32H80v16z"/>
  <path
    d="M64.1 380.7c.3 15.1 1.6 20.9 7.1 32.2 7.2 14.6 21.2 26.6 37.3 31.9 8.2 2.7 12.1 3.1 33.3 3.1l18.4.1-4.4 3.6c-19.3 16-20.1 16.9-19.4 21.4 1.1 6.9 2.2 7.2 27.6 6.8l22.7-.3 3.5-2.7c3.1-2.4 16.5-13.6 41.7-35.1 8.5-7.3 12.4-13 11.6-17.2-.2-1.1-.4-3-.4-4.2-.1-2.9-6.8-9.7-25.1-25.4-13.5-11.5-19.7-16.9-22.4-19.4-.6-.6-2.9-2.4-5-4l-3.9-3-22.3-.3c-19.3-.3-22.6-.1-24.8 1.3-2.6 1.7-4.1 6.2-3.2 9.2.3 1 5.6 6.1 11.8 11.3l11.3 9.5-16.6.3c-19.2.3-22.7-.5-27.1-5.9-3.5-4.4-3.6-4.9-3.7-16.7l-.1-9.2H63.9l.2 12.7z"/>
</svg>
