<!-- Generated by IcoMoon.io -->
<svg version="1.1" xmlns="http://www.w3.org/2000/svg" width="512" height="512" viewBox="0 0 512 512">
<title></title>
<g id="icomoon-ignore">
</g>
<path d="M160 32h-128v128h128v-128zM192 0v0 192h-192v-192h192zM64 64h64v64h-64zM480 32h-128v128h128v-128zM512 0v0 192h-192v-192h192zM384 64h64v64h-64zM160 352h-128v128h128v-128zM192 320v0 192h-192v-192h192zM64 384h64v64h-64zM224 0h32v32h-32zM256 32h32v32h-32zM224 64h32v32h-32zM256 96h32v32h-32zM224 128h32v32h-32zM256 160h32v32h-32zM224 192h32v32h-32zM224 256h32v32h-32zM256 288h32v32h-32zM224 320h32v32h-32zM256 352h32v32h-32zM224 384h32v32h-32zM256 416h32v32h-32zM224 448h32v32h-32zM256 480h32v32h-32zM480 256h32v32h-32zM32 256h32v32h-32zM64 224h32v32h-32zM0 224h32v32h-32zM128 224h32v32h-32zM160 256h32v32h-32zM192 224h32v32h-32zM288 256h32v32h-32zM320 224h32v32h-32zM352 256h32v32h-32zM384 224h32v32h-32zM416 256h32v32h-32zM448 224h32v32h-32zM480 320h32v32h-32zM288 320h32v32h-32zM320 288h32v32h-32zM352 320h32v32h-32zM416 320h32v32h-32zM448 288h32v32h-32zM480 384h32v32h-32zM288 384h32v32h-32zM320 352h32v32h-32zM384 352h32v32h-32zM416 384h32v32h-32zM448 352h32v32h-32zM480 448h32v32h-32zM320 416h32v32h-32zM352 448h32v32h-32zM384 416h32v32h-32zM416 448h32v32h-32zM320 480h32v32h-32zM384 480h32v32h-32zM448 480h32v32h-32z"></path>
</svg>
